<!DOCTYPE svg PUBLIC "-//W3C//DTD SVG 1.1//EN" "http://www.w3.org/Graphics/SVG/1.1/DTD/svg11.dtd">
<!-- Uploaded to: SVG Repo, www.svgrepo.com, Transformed by: SVG Repo Mixer Tools -->
<svg height="100px" width="100px" version="1.1" id="Layer_1" xmlns="http://www.w3.org/2000/svg" xmlns:xlink="http://www.w3.org/1999/xlink" viewBox="-112.64 -112.64 737.28 737.28" xml:space="preserve" fill="#000000">
<g id="SVGRepo_bgCarrier" stroke-width="0">
<rect x="-112.64" y="-112.64" width="737.28" height="737.28" rx="368.64" fill="#ec7edd" strokewidth="0"/>
</g>
<g id="SVGRepo_tracerCarrier" stroke-linecap="round" stroke-linejoin="round"/>
<g id="SVGRepo_iconCarrier"> <path style="fill:#50D1DD;" d="M503.834,342.813v161.019h-41.287l-32.681-80.511l32.681-104.68 C471.883,333.26,486.873,342.813,503.834,342.813z"/> <path style="fill:#78E3EC;" d="M462.547,318.64v185.191H8.175V342.813c16.95,0,31.973-9.554,41.309-24.173 c9.347,14.619,24.347,24.173,41.298,24.173s31.984-9.554,41.319-24.173c9.347,14.619,24.347,24.173,41.298,24.173 s31.951-9.554,41.309-24.173c9.347,14.619,24.347,24.173,41.298,24.173c16.961,0,31.984-9.554,41.319-24.173 c9.347,14.619,24.325,24.173,41.298,24.173c16.95,0,31.951-9.554,41.309-24.173c9.358,14.619,24.336,24.173,41.287,24.173 C438.189,342.813,453.211,333.26,462.547,318.64z"/> <g> <path style="fill:#FFFFFF;" d="M149.787,471.745H8.17c-4.512,0-8.17-3.657-8.17-8.17s3.658-8.17,8.17-8.17h141.617 c4.512,0,8.17,3.657,8.17,8.17S154.299,471.745,149.787,471.745z"/> <path style="fill:#FFFFFF;" d="M198.809,471.745h-16.34c-4.512,0-8.17-3.657-8.17-8.17s3.658-8.17,8.17-8.17h16.34 c4.512,0,8.17,3.657,8.17,8.17S203.321,471.745,198.809,471.745z"/> <path style="fill:#FFFFFF;" d="M141.458,431.491h-32.681c-4.512,0-8.17-3.657-8.17-8.17c0-4.513,3.658-8.17,8.17-8.17h32.681 c4.512,0,8.17,3.657,8.17,8.17C149.628,427.834,145.97,431.491,141.458,431.491z"/> <path style="fill:#FFFFFF;" d="M384,431.491h-32.681c-4.513,0-8.17-3.657-8.17-8.17c0-4.513,3.657-8.17,8.17-8.17H384 c4.513,0,8.17,3.657,8.17,8.17C392.17,427.834,388.513,431.491,384,431.491z"/> <path style="fill:#FFFFFF;" d="M503.83,431.491h-87.149c-4.513,0-8.17-3.657-8.17-8.17c0-4.513,3.657-8.17,8.17-8.17h87.149 c4.513,0,8.17,3.657,8.17,8.17C512,427.834,508.343,431.491,503.83,431.491z"/> <path style="fill:#FFFFFF;" d="M264.011,431.491h-16.34c-4.512,0-8.17-3.657-8.17-8.17c0-4.513,3.658-8.17,8.17-8.17h16.34 c4.513,0,8.17,3.657,8.17,8.17C272.181,427.834,268.523,431.491,264.011,431.491z"/> <path style="fill:#FFFFFF;" d="M106.213,391.237H40.851c-4.512,0-8.17-3.657-8.17-8.17c0-4.513,3.658-8.17,8.17-8.17h65.362 c4.512,0,8.17,3.657,8.17,8.17C114.383,387.58,110.725,391.237,106.213,391.237z"/> <path style="fill:#FFFFFF;" d="M280.511,391.237h-98.043c-4.512,0-8.17-3.657-8.17-8.17c0-4.513,3.658-8.17,8.17-8.17h98.043 c4.513,0,8.17,3.657,8.17,8.17C288.681,387.58,285.024,391.237,280.511,391.237z"/> <path style="fill:#FFFFFF;" d="M329.532,391.237h-16.34c-4.513,0-8.17-3.657-8.17-8.17c0-4.513,3.657-8.17,8.17-8.17h16.34 c4.513,0,8.17,3.657,8.17,8.17C337.702,387.58,334.045,391.237,329.532,391.237z"/> </g> <path style="fill:#C7E7EB;" d="M394.735,124.307v45.514l-29.108,2.702c-2.854,12.31-7.745,23.857-14.282,34.26l18.693,22.517 l-32.082,32.071l-22.561-18.737c-10.414,6.493-21.951,11.34-34.25,14.173l-2.702,29.151h-45.361l-2.713-29.238 c-12.266-2.865-23.759-7.734-34.13-14.249l-22.637,18.791l-32.071-32.082l18.835-22.681c-6.471-10.371-11.308-21.863-14.14-34.119 l-29.282-2.713V124.46l29.282-2.713c2.832-12.255,7.669-23.748,14.14-34.119l-18.835-22.681l32.071-32.082l22.637,18.791 c10.371-6.514,21.863-11.384,34.13-14.249l2.713-29.238h45.361l2.702,29.151c12.299,2.832,23.835,7.68,34.25,14.173l22.561-18.737 l32.082,32.071l-18.693,22.517c6.536,10.403,11.427,21.951,14.282,34.26L394.735,124.307z M322.292,147.064 c0-36.644-29.807-66.451-66.451-66.451s-66.451,29.807-66.451,66.451s29.807,66.451,66.451,66.451S322.292,183.708,322.292,147.064z "/> <path style="fill:#88ACB5;" d="M255.841,226.043l-10.894-16.34l10.894-16.34c25.524,0,46.298-20.774,46.298-46.298 s-20.774-46.298-46.298-46.298l-10.894-16.34l10.894-16.34c43.553,0,78.979,35.426,78.979,78.979S299.394,226.043,255.841,226.043z"/> <path style="fill:#A7CBCF;" d="M255.841,193.362v32.681c-43.553,0-78.979-35.426-78.979-78.979s35.426-78.979,78.979-78.979v32.681 c-25.524,0-46.298,20.774-46.298,46.298S230.317,193.362,255.841,193.362z"/> <path d="M255.841,201.532c30.034,0,54.468-24.434,54.468-54.468s-24.434-54.468-54.468-54.468s-54.468,24.434-54.468,54.468 S225.806,201.532,255.841,201.532z M255.841,108.936c21.024,0,38.128,17.104,38.128,38.128s-17.104,38.128-38.128,38.128 s-38.128-17.104-38.128-38.128S234.817,108.936,255.841,108.936z"/> <path d="M116.192,177.798l23.56,2.184c2.538,8.951,6.108,17.563,10.662,25.719l-15.164,18.263 c-2.696,3.246-2.475,8.011,0.509,10.997l32.073,32.073c2.985,2.984,7.751,3.203,10.996,0.509l18.195-15.107 c8.158,4.583,16.779,8.181,25.744,10.745l2.181,23.531c0.389,4.202,3.915,7.416,8.135,7.416h45.359c4.22,0,7.745-3.214,8.135-7.416 l2.171-23.423c8.996-2.541,17.653-6.124,25.849-10.701l18.146,15.068c3.247,2.695,8.011,2.474,10.997-0.509l32.073-32.073 c2.984-2.984,3.204-7.75,0.508-10.997L361.311,206c4.607-8.201,8.22-16.865,10.787-25.875l23.392-2.168 c4.202-0.389,7.416-3.915,7.416-8.135v-45.517c0-4.22-3.214-7.745-7.416-8.135l-23.392-2.169c-2.567-9.01-6.18-17.674-10.787-25.873 l15.01-18.078c2.696-3.246,2.475-8.012-0.51-10.997l-32.074-32.072c-2.982-2.983-7.748-3.203-10.996-0.509L314.596,41.54 c-8.193-4.574-16.851-8.158-25.849-10.7l-2.171-23.423C286.186,3.214,282.661,0,278.441,0h-45.359c-4.22,0-7.745,3.214-8.135,7.416 l-2.181,23.531c-8.963,2.564-17.584,6.161-25.744,10.745l-18.193-15.108c-3.247-2.695-8.012-2.476-10.997,0.509l-32.073,32.073 c-2.984,2.984-3.205,7.75-0.509,10.997l15.164,18.264c-4.552,8.155-8.123,16.77-10.662,25.718l-23.56,2.184 c-4.202,0.389-7.416,3.915-7.416,8.135v45.199C108.777,173.883,111.991,177.408,116.192,177.798z M125.118,131.912l21.868-2.026 c3.51-0.325,6.415-2.864,7.207-6.299c2.581-11.187,6.99-21.829,13.109-31.632c1.865-2.987,1.606-6.835-0.645-9.545l-14.078-16.955 l21.54-21.54l16.898,14.033c2.717,2.255,6.575,2.513,9.566,0.632c9.8-6.155,20.446-10.599,31.644-13.211 c3.426-0.797,5.956-3.699,6.28-7.202l2.023-21.828h30.463l2.015,21.738c0.326,3.513,2.869,6.42,6.307,7.208 c11.234,2.579,21.916,7,31.751,13.141c2.989,1.866,6.836,1.606,9.547-0.644l16.838-13.982l21.54,21.539l-13.936,16.783 c-2.255,2.717-2.511,6.575-0.632,9.566c6.18,9.836,10.637,20.522,13.244,31.763c0.795,3.429,3.699,5.964,7.204,6.288l21.692,2.012 v30.621l-21.694,2.012c-3.506,0.325-6.409,2.858-7.204,6.288c-2.609,11.239-7.063,21.927-13.244,31.765 c-1.879,2.989-1.623,6.849,0.633,9.565l13.935,16.782l-21.54,21.54l-16.838-13.982c-2.709-2.248-6.559-2.509-9.546-0.645 c-9.838,6.143-20.521,10.562-31.751,13.141c-3.438,0.789-5.982,3.696-6.307,7.208l-2.015,21.741H240.53l-2.023-21.825 c-0.325-3.502-2.854-6.403-6.279-7.202c-11.201-2.612-21.847-7.058-31.645-13.211c-2.988-1.879-6.848-1.621-9.565,0.632 l-16.899,14.032l-21.54-21.54l14.078-16.954c2.251-2.709,2.511-6.557,0.645-9.545c-6.118-9.803-10.53-20.446-13.109-31.632 c-0.793-3.435-3.697-5.973-7.207-6.299l-21.869-2.027v-30.305H125.118z"/> <path d="M194.145,196.958c3.778-2.467,4.841-7.53,2.375-11.309c-7.516-11.51-11.487-24.853-11.487-38.585 c0-39.044,31.765-70.809,70.809-70.809s70.809,31.765,70.809,70.809s-31.765,70.809-70.809,70.809 c-13.734,0-27.076-3.972-38.585-11.488c-3.776-2.47-8.841-1.406-11.308,2.374c-2.467,3.778-1.404,8.84,2.374,11.308 c14.173,9.255,30.606,14.148,47.52,14.148c48.054,0,87.149-39.095,87.149-87.149s-39.095-87.149-87.149-87.149 s-87.149,39.095-87.149,87.149c0,16.912,4.891,33.344,14.146,47.519C185.305,198.362,190.367,199.422,194.145,196.958z"/> <path d="M503.83,334.64c-13.585,0-26.123-7.435-34.399-20.398c-1.5-2.351-4.097-3.775-6.886-3.775s-5.386,1.424-6.887,3.775 c-8.274,12.962-20.826,20.398-34.439,20.398c-13.573,0-26.112-7.436-34.401-20.403c-1.501-2.346-4.095-3.768-6.88-3.769 c-2.789,0-5.381,1.419-6.884,3.765c-8.303,12.969-20.854,20.407-34.433,20.407c-13.581,0-26.125-7.436-34.415-20.403 c-1.502-2.349-4.097-3.769-6.884-3.769c-2.792,0.001-5.386,1.424-6.886,3.775c-8.276,12.962-20.823,20.398-34.427,20.398 c-13.582,0-26.126-7.436-34.415-20.403c-1.501-2.348-4.095-3.769-6.882-3.77c-2.789,0-5.381,1.419-6.884,3.765 c-8.303,12.969-20.854,20.407-34.431,20.407c-13.582,0-26.126-7.436-34.415-20.403c-1.501-2.349-4.097-3.77-6.884-3.77 c-2.791,0.001-5.386,1.424-6.887,3.775c-8.275,12.962-20.823,20.398-34.427,20.398c-13.582,0-26.126-7.436-34.415-20.403 c-1.501-2.349-4.097-3.77-6.884-3.77c-2.791,0.001-5.386,1.424-6.887,3.775c-8.275,12.962-20.823,20.398-34.427,20.398 c-4.512,0-8.17,3.657-8.17,8.17v161.02c0,4.513,3.658,8.17,8.17,8.17h389.015c4.513,0,8.17-3.657,8.17-8.17s-3.657-8.17-8.17-8.17 H16.34V350.335c12.461-1.976,24.097-8.421,33.146-18.315c11.01,12.029,25.83,18.96,41.297,18.96c15.486,0,30.313-6.931,41.316-18.96 c11.01,12.029,25.83,18.96,41.297,18.96c15.465,0,30.29-6.934,41.309-18.967c11.01,12.032,25.833,18.967,41.303,18.967 c15.485,0,30.311-6.932,41.316-18.96c11.01,12.029,25.831,18.96,41.296,18.96c15.465,0,30.291-6.934,41.31-18.967 c11.009,12.032,25.828,18.967,41.289,18.967c15.492,0,30.321-6.931,41.327-18.956c9.045,9.888,20.67,16.332,33.114,18.31V495.66 h-65.793c-4.513,0-8.17,3.657-8.17,8.17s3.657,8.17,8.17,8.17h73.963c4.513,0,8.17-3.657,8.17-8.17V342.81 C512,338.298,508.343,334.64,503.83,334.64z"/> </g>
</svg>